# xmcd CD database file
#
# Track frame offsets:
#	150
#	28905
#	61647
#	87637
#	100990
#	131145
#	147320
#	164585
#	179657
#	203575
#	217980
#	233045
#	248797
#	268072
#	281647
#	293797
#	314425
#
# Disc length: 4385 seconds
#
# Revision: 1
# Processed by: cddbd v1.5.2PL0 Copyright (c) Steve Scherf et al.
# Submitted via: CDex 1.51
#
DISCID=0a111f11
DTITLE=Big Mama Thornton - Charley Musselwhite's South Side Band - Jail - Stand Back!
DYEAR=1900
DGENRE=Blues
TTITLE0=Little Red Rooster
TTITLE1=Ball 'N' Chain
TTITLE2=Jail
TTITLE3=Hound Dog
TTITLE4=Rock Me Baby
TTITLE5=Sheriff O.E. and Me
TTITLE6=Oh Happy Day
TTITLE7=Baby Will You Please Help Me
TTITLE8=No More Lonely Nights
TTITLE9=Cha Cha The Blues
TTITLE10=Christo Redemptor
TTITLE11=Help Me
TTITLE12=Chicken Shack
TTITLE13=Strange Land
TTITLE14=My Baby
TTITLE15=Early In The Morning
TTITLE16=4 P.M.
EXTD=
EXTT0=
EXTT1=
EXTT2=
EXTT3=
EXTT4=
EXTT5=
EXTT6=
EXTT7=
EXTT8=
EXTT9=
EXTT10=
EXTT11=
EXTT12=
EXTT13=
EXTT14=
EXTT15=
EXTT16=
PLAYORDER=
